# xmcd
#
# Track frame offsets:
#	150
#	10807
#	21912
#	31715
#	41827
#	52570
#	64195
#	76295
#	87245
#	97112
#	109360
#	122895
#	132935
#	144262
#	155752
#	168345
#	178347
#	188805
#	199107
#	210860
#
# Disc length: 2984 seconds
#
# Revision: 1
# Processed by: cddbd v1.4PL0 Copyright (c) Steve Scherf et al.
# Submitted via: EasyCDDAExtractor 6.0.0.1
#
DISCID=0d0ba614
DTITLE=Charlie Rich - The Masters
DYEAR=2003
DGENRE=country
TTITLE0=Tomorrow Night
TTITLE1=She Called Me Baby
TTITLE2=Now Everybody Knows
TTITLE3=I Don't See Me In Your Eyes Anymore
TTITLE4=She Loved Everybody But Me
TTITLE5=The Ways Of A Woman In Love
TTITLE6=Gentleman Jim
TTITLE7=There Won't Be Anymore
TTITLE8=It's All Over Now
TTITLE9=Too Many Teardrops
TTITLE10=Why Oh Why
TTITLE11=No Room To Dance
TTITLE12=It Just Goes To Show (You Never Know About Love)
TTITLE13=Lady Love
TTITLE14=Are You Still My Baby
TTITLE15=The Twelfth Of Never
TTITLE16=Nice 'N' Easy
TTITLE17=Big Jack
TTITLE18=Big Boss Man
TTITLE19=I've Got You Under My Skin
EXTD=
EXTT0=
EXTT1=
EXTT2=
EXTT3=
EXTT4=
EXTT5=
EXTT6=
EXTT7=
EXTT8=
EXTT9=
EXTT10=
EXTT11=
EXTT12=
EXTT13=
EXTT14=
EXTT15=
EXTT16=
EXTT17=
EXTT18=
EXTT19=
PLAYORDER=
